<?xml version="1.0" encoding="utf-8"?>
<!-- Generator: Adobe Illustrator 22.0.0, SVG Export Plug-In . SVG Version: 6.00 Build 0)  -->
<svg version="1.1" id="Layer_1" xmlns="http://www.w3.org/2000/svg" xmlns:xlink="http://www.w3.org/1999/xlink" x="0px" y="0px"
	 width="114.5px" height="128.8px" viewBox="0 0 114.5 128.8" enable-background="new 0 0 114.5 128.8" xml:space="preserve">
<g>
	<g>
		<path fill="#503629" d="M45.1,98.4c0.8,0,14.5,15.7,15.3,15.7S78.7,98.9,81,96.9c0.9,5.4,5.4,11,10.5,14c6.8,3.9,15,4.8,20.3-0.8
			c1.8-2,2.7-4.4,2.7-6.9c-0.1-5.9-4.8-12.2-10.6-15.4C97.3,84,89.6,83,84,88.3c-0.4,0.4-0.6,0.6-0.9,0.9V0h-2.2v91.3
			c-1.9,1.6-8.5,7.3-9.2,7.3c-0.8,0-15.4-17.4-16.2-17.4c-0.9,0-17,15.9-17.7,15.9S22.4,81.2,21.6,81.2c-0.8-0.1-21.6,19-21.6,19
			v4.8c0,0,10.2-9.5,11-9.5c0.7,0,16.1,18.5,17.1,18.5S44.3,98.4,45.1,98.4z"/>
		<rect x="87.4" y="122.9" fill="#EE7623" width="22.2" height="5.9"/>
	</g>
</g>
</svg>
