<?xml version="1.0" encoding="utf-8"?>
<svg version="1.1" id="Layer_1" xmlns="http://www.w3.org/2000/svg" xmlns:xlink="http://www.w3.org/1999/xlink" x="0px" y="0px"
	 viewBox="0 0 500 500" style="enable-background:new 0 0 500 500;" xml:space="preserve">
<style type="text/css">
	.st0{fill:#CCCCCC;}
</style>
<g>
	<path class="st0" d="M26.5,190.4c0,90.3,73,163.3,163.3,163.3c31.6,0,61.1-9,86-24.5l144.3,144.3l52.9-52.9L328.7,276.3
		c15.4-25,24.4-54.4,24.4-85.9c0-90.3-73-163.3-163.3-163.3S26.5,100.1,26.5,190.4z M73.1,190.4c0-64.4,52.3-116.7,116.7-116.7
		S306.5,126,306.5,190.4c0,64.4-52.3,116.7-116.7,116.7S73.1,254.8,73.1,190.4z"/>
</g>
</svg>
